<svg width="18" height="16" viewBox="0 0 18 16" fill="none" xmlns="http://www.w3.org/2000/svg">
<path fill-rule="evenodd" clip-rule="evenodd" d="M18 8C18 8.60249 17.5525 9.09609 16.9849 9.13972L16.9031 9.14286L3.6739 9.14259L8.05609 14.0813C8.46734 14.5448 8.4401 15.2679 7.99525 15.6963C7.57381 16.1022 6.92876 16.0981 6.51235 15.7025L6.44514 15.6329L0.240276 8.6402C-0.0800919 8.27915 -0.0800919 7.72085 0.240276 7.3598L6.44514 0.367053C6.85639 -0.0964195 7.5504 -0.124796 7.99525 0.303671C8.41669 0.709588 8.46331 1.3799 8.11738 1.84341L8.05609 1.91867L3.67435 6.85694L16.9031 6.85714C17.5089 6.85714 18 7.36882 18 8Z" fill="#333333"/>
</svg>
