<svg width="20" height="22" viewBox="0 0 20 22" fill="none" xmlns="http://www.w3.org/2000/svg">
<path d="M17 2.95435H15V1.92224C15 1.64851 14.8946 1.38599 14.7071 1.19243C14.5196 0.998876 14.2652 0.890137 14 0.890137C13.7348 0.890137 13.4804 0.998876 13.2929 1.19243C13.1054 1.38599 13 1.64851 13 1.92224V2.95435H7V1.92224C7 1.64851 6.89464 1.38599 6.70711 1.19243C6.51957 0.998876 6.26522 0.890137 6 0.890137C5.73478 0.890137 5.48043 0.998876 5.29289 1.19243C5.10536 1.38599 5 1.64851 5 1.92224V2.95435H3C2.20435 2.95435 1.44129 3.28057 0.87868 3.86124C0.316071 4.44191 0 5.22947 0 6.05067V18.4359C0 19.2571 0.316071 20.0447 0.87868 20.6254C1.44129 21.206 2.20435 21.5323 3 21.5323H17C17.7956 21.5323 18.5587 21.206 19.1213 20.6254C19.6839 20.0447 20 19.2571 20 18.4359V6.05067C20 5.22947 19.6839 4.44191 19.1213 3.86124C18.5587 3.28057 17.7956 2.95435 17 2.95435ZM18 18.4359C18 18.7097 17.8946 18.9722 17.7071 19.1657C17.5196 19.3593 17.2652 19.468 17 19.468H3C2.73478 19.468 2.48043 19.3593 2.29289 19.1657C2.10536 18.9722 2 18.7097 2 18.4359V11.2112H18V18.4359ZM18 9.14699H2V6.05067C2 5.77694 2.10536 5.51442 2.29289 5.32086C2.48043 5.1273 2.73478 5.01856 3 5.01856H5V6.05067C5 6.3244 5.10536 6.58692 5.29289 6.78048C5.48043 6.97403 5.73478 7.08277 6 7.08277C6.26522 7.08277 6.51957 6.97403 6.70711 6.78048C6.89464 6.58692 7 6.3244 7 6.05067V5.01856H13V6.05067C13 6.3244 13.1054 6.58692 13.2929 6.78048C13.4804 6.97403 13.7348 7.08277 14 7.08277C14.2652 7.08277 14.5196 6.97403 14.7071 6.78048C14.8946 6.58692 15 6.3244 15 6.05067V5.01856H17C17.2652 5.01856 17.5196 5.1273 17.7071 5.32086C17.8946 5.51442 18 5.77694 18 6.05067V9.14699Z" fill="#136AF3"/>
</svg>
