<svg width="15" height="14" viewBox="0 0 15 14" fill="none" xmlns="http://www.w3.org/2000/svg">
<path d="M10.972 3.23563C11.276 3.50514 11.2261 3.97394 10.9116 4.23104C10.3958 4.65266 10.6614 5.48799 11.3259 5.53434L12.9213 5.64562C13.6435 5.696 14.2802 5.17557 14.3745 4.45777L14.5828 2.87219C14.6696 2.21167 13.9038 1.78524 13.388 2.20685C13.0735 2.46395 12.6128 2.41358 12.3199 2.13213C11.2639 1.1176 9.86386 0.500544 8.34286 0.39445C6.56819 0.270663 4.77414 0.852622 3.35539 2.0123C2.62289 2.61105 2.04135 3.32142 1.61358 4.0912C1.33783 4.58741 1.70804 5.16008 2.27434 5.19958C2.63284 5.22458 2.96297 5.01898 3.14539 4.70936C3.4667 4.16398 3.88635 3.67544 4.38382 3.27047C5.44788 2.40071 6.79341 1.96424 8.12441 2.05708C9.20144 2.1322 10.1976 2.54893 10.972 3.23563ZM13.3227 10.0021C13.5997 9.50434 13.2282 8.92971 12.66 8.89007C12.3032 8.86518 11.9738 9.06786 11.7916 9.37564C11.4746 9.9109 11.0604 10.4058 10.5543 10.8195C9.49028 11.6892 8.14474 12.1257 6.81374 12.0328C5.73671 11.9577 4.74059 11.541 3.9661 10.8543C3.66214 10.5848 3.71201 10.116 4.02654 9.85888C4.54235 9.43726 4.27678 8.60193 3.61221 8.55558L2.01688 8.4443C1.29466 8.39392 0.657976 8.91435 0.563666 9.63215L0.355343 11.2177C0.268561 11.8782 1.03436 12.3047 1.55016 11.8831C1.8647 11.626 2.32534 11.6763 2.61829 11.9578C3.6743 12.9723 5.07429 13.5894 6.59529 13.6955C8.36996 13.8193 10.164 13.2373 11.5828 12.0776C12.3142 11.4797 12.8951 10.7706 13.3227 10.0021Z" fill="black"/>
</svg>
