<svg width="32" height="32" viewBox="0 0 32 32" fill="none" xmlns="http://www.w3.org/2000/svg">
<g clip-path="url(#clip0_10_4824)">
<path fill-rule="evenodd" clip-rule="evenodd" d="M32 16C32 24.8366 24.8366 32 16 32C7.16345 32 0 24.8366 0 16C0 7.16344 7.16345 0 16 0C24.8366 0 32 7.16344 32 16ZM11.8494 25.8285C13.1646 26.3842 14.5611 26.6667 16.0011 26.6667C17.4415 26.6667 18.8373 26.3842 20.1529 25.824C22.7095 24.7401 24.7447 22.7049 25.8285 20.1483C26.3842 18.8331 26.6666 17.4365 26.6666 15.9965C26.6704 11.7086 24.1036 7.83613 20.1529 6.16929C18.8373 5.61356 17.4368 5.33335 15.9988 5.33335C11.7108 5.32958 7.83835 7.89633 6.1715 11.8471C5.61577 13.1627 5.33331 14.5585 5.33331 15.9988C5.33331 17.4392 5.61577 18.8354 6.17385 20.153C7.25766 22.7095 9.29281 24.7447 11.8494 25.8285ZM10.1335 10.1312C11.7011 8.56619 13.7851 7.70219 16.0011 7.70219C18.2171 7.70219 20.3006 8.56608 21.8685 10.1314C23.4336 11.699 24.2976 13.783 24.2976 15.999C24.2976 18.215 23.4339 20.2987 21.8685 21.8667C20.301 23.4317 18.2169 24.2957 16.0009 24.2957C13.7849 24.2957 11.7013 23.432 10.1333 21.8667C8.56818 20.2987 7.7045 18.2148 7.7045 15.9988C7.7045 13.7828 8.56552 11.6992 10.1335 10.1312ZM15.3599 18.6548H19.9818V20.9774H17.1359C17.159 21.3087 17.1769 21.6279 17.1948 21.9467L17.1948 21.9468L17.1948 21.947C17.2128 22.2676 17.2308 22.5879 17.254 22.9201H14.8596V21.0001H12.0137C12.0137 20.7811 12.0058 20.5623 11.998 20.3448C11.9786 19.8078 11.9595 19.2784 12.06 18.7725C12.1109 18.5035 12.3395 18.2588 12.5616 18.0213L12.5616 18.0212C12.653 17.9235 12.7432 17.827 12.8195 17.7305C13.7203 16.6629 14.621 15.621 15.5449 14.5535C15.7452 14.3273 15.9447 14.1083 16.1525 13.8802L16.1526 13.8801L16.1526 13.8801L16.1527 13.8801L16.1527 13.88C16.3149 13.7021 16.4821 13.5185 16.6587 13.3216H12.2267V10.9996H14.8572V9.05677H17.1565V10.9532H20.0259C20.0259 11.1802 20.0338 11.405 20.0417 11.6273C20.0611 12.1713 20.0798 12.6999 19.9796 13.2062C19.9265 13.4871 19.6796 13.7413 19.4394 13.9887C19.3548 14.0758 19.2711 14.162 19.197 14.2482C18.2962 15.3158 17.3955 16.3577 16.4715 17.4252C16.1195 17.849 15.7652 18.2265 15.3599 18.6548Z" fill="#F4B728"/>
</g>
<defs>
<clipPath id="clip0_10_4824">
<rect width="32" height="32" fill="white"/>
</clipPath>
</defs>
</svg>
