<svg width="14" height="12" viewBox="0 0 14 12" fill="none" xmlns="http://www.w3.org/2000/svg">
<path d="M1.71759 12C1.24525 12 0.840907 11.8221 0.504551 11.4662C0.168184 11.1104 0 10.6826 0 10.1829V1.81714C0 1.31743 0.168184 0.889646 0.504551 0.533794C0.840907 0.177931 1.24525 0 1.71759 0H12.2824C12.7547 0 13.1591 0.177931 13.4954 0.533794C13.8318 0.889646 14 1.31743 14 1.81714V10.1829C14 10.6826 13.8318 11.1104 13.4954 11.4662C13.1591 11.8221 12.7547 12 12.2824 12H1.71759ZM7 7.08L1.71759 3.66857V10.1829H12.2824V3.66857L7 7.08ZM7 5.31429L12.412 1.81714H1.58796L7 5.31429ZM1.58796 3.66857V1.81714V10.1829V3.66857Z" fill="#002868"/>
</svg>
