<svg width="183" height="184" viewBox="0 0 183 184" fill="none" xmlns="http://www.w3.org/2000/svg">
<path d="M50.9279 131.596C45.0062 125.877 40.2829 119.035 37.0336 111.471C33.7842 103.907 32.0739 95.7711 32.0023 87.5387C31.9308 79.3064 33.4995 71.1423 36.6169 63.5227C39.7343 55.9031 44.338 48.9807 50.1594 43.1594C55.9807 37.338 62.9031 32.7343 70.5227 29.6169C78.1423 26.4995 86.3064 24.9308 94.5387 25.0023C102.771 25.0739 110.907 26.7842 118.471 30.0336C126.035 33.2829 132.877 38.0062 138.596 43.9279C149.89 55.6212 156.139 71.2825 155.998 87.5387C155.856 103.795 149.336 119.345 137.841 130.841C126.345 142.336 110.795 148.856 94.5387 148.998C78.2825 149.139 62.6212 142.89 50.9279 131.596ZM88.5619 56.7619V93.9619H100.962V56.7619H88.5619ZM88.5619 106.362V118.762H100.962V106.362H88.5619Z" fill="#264A99"/>
<circle cx="174" cy="35" r="9" fill="#264A99"/>
<circle cx="46" cy="175" r="9" fill="#264A99"/>
<circle cx="156.5" cy="153.5" r="4.5" fill="#264A99"/>
<circle cx="12.5" cy="94.5" r="4.5" fill="#264A99"/>
<circle cx="9" cy="9" r="9" fill="#264A99"/>
</svg>
