<svg width="16" height="16" viewBox="0 0 16 16" fill="none" xmlns="http://www.w3.org/2000/svg">
<path d="M11.7714 11.1047L8.94269 13.9334C8.81898 14.0572 8.67209 14.1554 8.5104 14.2225C8.3487 14.2895 8.17539 14.324 8.00036 14.324C7.82532 14.324 7.65201 14.2895 7.49032 14.2225C7.32862 14.1554 7.18173 14.0572 7.05802 13.9334L4.22869 11.1047C3.48284 10.3588 2.97491 9.40852 2.76915 8.37396C2.56338 7.3394 2.66902 6.26706 3.07269 5.29254C3.47637 4.31801 4.15995 3.48508 5.03701 2.89905C5.91407 2.31303 6.9452 2.00024 8.00002 2.00024C9.05485 2.00024 10.086 2.31303 10.963 2.89905C11.8401 3.48508 12.5237 4.31801 12.9274 5.29254C13.331 6.26706 13.4367 7.3394 13.2309 8.37396C13.0251 9.40852 12.5172 10.3588 11.7714 11.1047V11.1047Z" stroke="black" stroke-width="2" stroke-linecap="round" stroke-linejoin="round"/>
<path d="M9.41421 8.74747C9.78929 8.37239 10 7.86368 10 7.33325C10 6.80282 9.78929 6.29411 9.41421 5.91904C9.03914 5.54397 8.53043 5.33325 8 5.33325C7.46957 5.33325 6.96086 5.54397 6.58579 5.91904C6.21071 6.29411 6 6.80282 6 7.33325C6 7.86368 6.21071 8.37239 6.58579 8.74747C6.96086 9.12254 7.46957 9.33325 8 9.33325C8.53043 9.33325 9.03914 9.12254 9.41421 8.74747Z" stroke="black" stroke-width="2" stroke-linecap="round" stroke-linejoin="round"/>
</svg>
