<svg width="14" height="18" viewBox="0 0 14 18" fill="none" xmlns="http://www.w3.org/2000/svg">
<path d="M2.12 18C1.52 18 1.01667 17.8032 0.61 17.4097C0.203333 17.0161 0 16.529 0 15.9484V8.05161C0 7.47097 0.203333 6.98387 0.61 6.59032C1.01667 6.19677 1.52 6 2.12 6H2.44V4.45161C2.44 3.2129 2.8846 2.16129 3.7738 1.29677C4.663 0.432258 5.7384 0 7 0C8.2616 0 9.337 0.432258 10.2262 1.29677C11.1154 2.16129 11.56 3.2129 11.56 4.45161V6H11.88C12.48 6 12.9833 6.19677 13.39 6.59032C13.7967 6.98387 14 7.47097 14 8.05161V15.9484C14 16.529 13.7967 17.0161 13.39 17.4097C12.9833 17.8032 12.48 18 11.88 18H2.12ZM2.12 15.9484H11.88V8.05161H2.12V15.9484ZM7.00318 13.8581C7.52106 13.8581 7.96333 13.6796 8.33 13.3227C8.69667 12.9658 8.88 12.5368 8.88 12.0356C8.88 11.5345 8.69561 11.1065 8.32682 10.7516C7.95802 10.3968 7.51469 10.2194 6.99682 10.2194C6.47894 10.2194 6.03667 10.3978 5.67 10.7547C5.30333 11.1116 5.12 11.5406 5.12 12.0418C5.12 12.543 5.30439 12.971 5.67318 13.3258C6.04198 13.6806 6.48531 13.8581 7.00318 13.8581ZM4.56 6H9.44V4.45161C9.44 3.79355 9.20255 3.22903 8.72764 2.75806C8.25275 2.2871 7.67608 2.05161 6.99764 2.05161C6.31921 2.05161 5.74333 2.2871 5.27 2.75806C4.79667 3.22903 4.56 3.79355 4.56 4.45161V6Z" fill="black"/>
</svg>
