<svg width="46" height="32" viewBox="0 0 46 32" fill="none" xmlns="http://www.w3.org/2000/svg">
<rect x="0.5" y="0.5" width="45" height="31" rx="5.5" fill="white" stroke="#D9D9D9"/>
<path fill-rule="evenodd" clip-rule="evenodd" d="M23.3286 22.876C21.7625 24.247 19.731 25.0747 17.5112 25.0747C12.5581 25.0747 8.54285 20.9539 8.54285 15.8707C8.54285 10.7875 12.5581 6.66675 17.5112 6.66675C19.731 6.66675 21.7625 7.49442 23.3286 8.86545C24.8946 7.49442 26.9261 6.66675 29.1459 6.66675C34.099 6.66675 38.1143 10.7875 38.1143 15.8707C38.1143 20.9539 34.099 25.0747 29.1459 25.0747C26.9261 25.0747 24.8946 24.247 23.3286 22.876Z" fill="#ED0006"/>
<path fill-rule="evenodd" clip-rule="evenodd" d="M23.3286 22.876C25.2569 21.1878 26.4796 18.6758 26.4796 15.8707C26.4796 13.0656 25.2569 10.5536 23.3286 8.86545C24.8946 7.49442 26.9261 6.66675 29.1459 6.66675C34.099 6.66675 38.1143 10.7875 38.1143 15.8707C38.1143 20.9539 34.099 25.0747 29.1459 25.0747C26.9261 25.0747 24.8946 24.247 23.3286 22.876Z" fill="#F9A000"/>
<path fill-rule="evenodd" clip-rule="evenodd" d="M23.3286 8.86548C25.2569 10.5537 26.4796 13.0656 26.4796 15.8707C26.4796 18.6758 25.2569 21.1878 23.3286 22.876C21.4003 21.1878 20.1776 18.6758 20.1776 15.8707C20.1776 13.0656 21.4003 10.5537 23.3286 8.86548Z" fill="#FF5E00"/>
</svg>
