<svg width="46" height="32" viewBox="0 0 46 32" fill="none" xmlns="http://www.w3.org/2000/svg">
<rect x="0.5" y="0.5" width="45" height="30.5429" rx="5.5" fill="white" stroke="#D9D9D9"/>
<path fill-rule="evenodd" clip-rule="evenodd" d="M13.0114 20.0308H10.9669C10.827 20.0308 10.708 20.1324 10.6862 20.2705L9.85926 25.5133C9.84283 25.6168 9.92294 25.71 10.0279 25.71H11.004C11.1439 25.71 11.2629 25.6083 11.2847 25.47L11.5077 24.0559C11.5292 23.9175 11.6485 23.8159 11.7881 23.8159H12.4353C13.7821 23.8159 14.5594 23.1642 14.7625 21.8727C14.8539 21.3077 14.7663 20.8637 14.5017 20.5527C14.2111 20.2114 13.6957 20.0308 13.0114 20.0308ZM13.2473 21.9456C13.1355 22.6793 12.575 22.6793 12.033 22.6793H11.7244L11.9409 21.3091C11.9537 21.2263 12.0255 21.1653 12.1092 21.1653H12.2506C12.6198 21.1653 12.9681 21.1653 13.1481 21.3758C13.2553 21.5014 13.2882 21.6879 13.2473 21.9456ZM19.123 21.9221H18.1439C18.0605 21.9221 17.9884 21.9831 17.9756 22.066L17.9322 22.3398L17.8638 22.2406C17.6518 21.9329 17.1792 21.8301 16.7075 21.8301C15.6255 21.8301 14.7014 22.6495 14.5215 23.799C14.4279 24.3723 14.5609 24.9206 14.8861 25.303C15.1846 25.6545 15.6115 25.801 16.1194 25.801C16.9911 25.801 17.4746 25.2405 17.4746 25.2405L17.4309 25.5126C17.4144 25.6166 17.4945 25.7099 17.5988 25.7099H18.4808C18.6211 25.7099 18.7394 25.6082 18.7615 25.4698L19.2907 22.1188C19.3074 22.0158 19.2276 21.9221 19.123 21.9221ZM17.7582 23.8277C17.6637 24.387 17.2198 24.7625 16.6537 24.7625C16.3693 24.7625 16.142 24.6713 15.9962 24.4985C15.8515 24.327 15.7965 24.0826 15.8425 23.8107C15.9308 23.256 16.3822 22.8684 16.9398 22.8684C17.2177 22.8684 17.4437 22.9607 17.5926 23.135C17.7417 23.3111 17.801 23.5568 17.7582 23.8277ZM23.3535 21.922H24.3374C24.4752 21.922 24.5556 22.0765 24.4773 22.1895L21.205 26.9129C21.152 26.9894 21.0647 27.035 20.9714 27.035H19.9888C19.8504 27.035 19.7696 26.8792 19.8497 26.7659L20.8686 25.3276L19.785 22.1473C19.7475 22.0368 19.8291 21.922 19.9467 21.922H20.9135C21.0391 21.922 21.1499 22.0044 21.1862 22.1246L21.7613 24.0454L23.1183 22.0466C23.1714 21.9686 23.2597 21.922 23.3535 21.922Z" fill="#253B80"/>
<path fill-rule="evenodd" clip-rule="evenodd" d="M34.0208 25.5133L34.8599 20.1747C34.8728 20.0918 34.9446 20.0308 35.028 20.0305H35.9726C36.0769 20.0305 36.157 20.124 36.1406 20.2275L35.3131 25.47C35.2916 25.6084 35.1726 25.71 35.0324 25.71H34.1888C34.0845 25.71 34.0044 25.6168 34.0208 25.5133ZM27.5948 20.0308H25.5499C25.4103 20.0308 25.2913 20.1325 25.2695 20.2705L24.4426 25.5133C24.4261 25.6168 24.5062 25.71 24.6107 25.71H25.6599C25.7574 25.71 25.8408 25.6389 25.8561 25.5421L26.0907 24.056C26.1123 23.9175 26.2315 23.8159 26.3711 23.8159H27.018C28.3651 23.8159 29.1422 23.1642 29.3454 21.8727C29.4372 21.3077 29.349 20.8638 29.0845 20.5528C28.7941 20.2115 28.2791 20.0308 27.5948 20.0308ZM27.8307 21.9456C27.7192 22.6793 27.1586 22.6793 26.6163 22.6793H26.308L26.5248 21.3091C26.5377 21.2264 26.6088 21.1654 26.6928 21.1654H26.8342C27.2031 21.1654 27.5518 21.1654 27.7316 21.3758C27.839 21.5014 27.8716 21.6879 27.8307 21.9456ZM33.7058 21.9221H32.7274C32.6433 21.9221 32.5719 21.9831 32.5594 22.066L32.5161 22.3398L32.4473 22.2406C32.2353 21.9329 31.763 21.8301 31.2913 21.8301C30.2093 21.8301 29.2855 22.6496 29.1055 23.7991C29.0123 24.3724 29.1447 24.9206 29.4699 25.303C29.7689 25.6546 30.1953 25.8011 30.7032 25.8011C31.5749 25.8011 32.0583 25.2405 32.0583 25.2405L32.0147 25.5126C31.9982 25.6167 32.0783 25.7099 32.1833 25.7099H33.0649C33.2045 25.7099 33.3234 25.6082 33.3453 25.4699L33.8747 22.1189C33.8909 22.0158 33.8108 21.9221 33.7058 21.9221ZM32.3412 23.8277C32.2472 24.387 31.8027 24.7625 31.2365 24.7625C30.9527 24.7625 30.725 24.6713 30.5791 24.4985C30.4344 24.327 30.38 24.0827 30.4255 23.8107C30.5142 23.2561 30.9651 22.8684 31.5226 22.8684C31.8007 22.8684 32.0266 22.9607 32.1756 23.135C32.3253 23.3111 32.3845 23.5568 32.3412 23.8277Z" fill="#179BD7"/>
<path d="M20.5778 18.1553L20.8291 16.5588L20.2692 16.5458H17.5957L19.4537 4.76479C19.4594 4.72922 19.4782 4.69606 19.5056 4.67251C19.533 4.64896 19.5681 4.63599 19.6046 4.63599H24.1126C25.6093 4.63599 26.642 4.94742 27.1813 5.5621C27.4341 5.85047 27.5951 6.1518 27.673 6.48342C27.7546 6.83139 27.7561 7.2471 27.6763 7.75414L27.6705 7.79115V8.11603L27.9234 8.25926C28.1363 8.37219 28.3054 8.50148 28.4351 8.64951C28.6515 8.89605 28.7914 9.20941 28.8504 9.58091C28.9115 9.96299 28.8913 10.4176 28.7914 10.9324C28.676 11.5245 28.4895 12.0402 28.2377 12.4621C28.006 12.8509 27.7109 13.1734 27.3606 13.4233C27.0261 13.6608 26.6286 13.841 26.1793 13.9564C25.7437 14.0697 25.2474 14.127 24.7028 14.127H24.352C24.1012 14.127 23.8574 14.2173 23.6662 14.3793C23.4744 14.5446 23.3474 14.7704 23.3086 15.0175L23.2821 15.1613L22.8381 17.9751L22.8179 18.0784C22.8126 18.1112 22.8035 18.1275 22.7901 18.1386C22.778 18.1486 22.7607 18.1553 22.7438 18.1553H20.5778Z" fill="#253B80"/>
<path d="M28.1628 7.82861C28.1493 7.91464 28.134 8.00258 28.1167 8.09294C27.5221 11.1453 25.4882 12.1997 22.8905 12.1997H21.5679C21.2503 12.1997 20.9826 12.4304 20.9331 12.7437L20.2559 17.0385L20.0641 18.2558C20.0319 18.4615 20.1906 18.647 20.3981 18.647H22.744C23.0218 18.647 23.2577 18.4452 23.3014 18.1712L23.3245 18.052L23.7663 15.2491L23.7946 15.0954C23.8378 14.8205 24.0742 14.6186 24.352 14.6186H24.7029C26.9756 14.6186 28.7549 13.6959 29.2749 11.0256C29.4921 9.9101 29.3797 8.9787 28.8048 8.32363C28.6309 8.1261 28.4151 7.96221 28.1628 7.82861Z" fill="#179BD7"/>
<path d="M27.5406 7.58106C27.4498 7.55462 27.356 7.53059 27.2599 7.50897C27.1633 7.48783 27.0642 7.46908 26.9624 7.45274C26.6058 7.39507 26.2151 7.36768 25.7964 7.36768H22.2631C22.1761 7.36768 22.0935 7.38738 22.0194 7.42294C21.8565 7.50128 21.7354 7.65556 21.7061 7.84443L20.9543 12.6053L20.9327 12.7442C20.9823 12.4308 21.25 12.2001 21.5676 12.2001H22.8902C25.4879 12.2001 27.5219 11.1452 28.1164 8.09338C28.1341 8.00303 28.149 7.91508 28.1624 7.82906C28.0121 7.74928 27.8491 7.68103 27.6737 7.62287C27.6305 7.60845 27.5858 7.59452 27.5406 7.58106Z" fill="#222D65"/>
<path d="M21.7062 7.84421C21.7355 7.65533 21.8567 7.50106 22.0195 7.42319C22.0941 7.38763 22.1763 7.36792 22.2631 7.36792H25.7966C26.2153 7.36792 26.606 7.39532 26.9625 7.45299C27.0644 7.46933 27.1635 7.48808 27.2601 7.50922C27.3562 7.53085 27.4499 7.55489 27.5408 7.58131C27.5859 7.59477 27.6306 7.6087 27.6743 7.62265C27.8497 7.68079 28.0127 7.74953 28.163 7.82883C28.34 6.70085 28.1617 5.93285 27.5518 5.23741C26.8795 4.47181 25.6659 4.14404 24.1131 4.14404H19.605C19.2877 4.14404 19.0173 4.37472 18.9681 4.68856L17.0905 16.5907C17.0534 16.8262 17.2351 17.0387 17.4725 17.0387H20.2557L20.9545 12.6051L21.7062 7.84421Z" fill="#253B80"/>
</svg>
