<svg width="16" height="17" viewBox="0 0 16 17" fill="none" xmlns="http://www.w3.org/2000/svg">
<path d="M9 11.0741C9 11.3411 8.89464 11.5972 8.70711 11.786C8.51957 11.9748 8.26522 12.0809 8 12.0809C7.73478 12.0809 7.48043 11.9748 7.29289 11.786C7.10536 11.5972 7 11.3411 7 11.0741C7 10.8071 7.10536 10.551 7.29289 10.3622C7.48043 10.1734 7.73478 10.0674 8 10.0674C8.26522 10.0674 8.51957 10.1734 8.70711 10.3622C8.89464 10.551 9 10.8071 9 11.0741ZM7.5 4.02686C6.83696 4.02686 6.20107 4.29203 5.73223 4.76403C5.26339 5.23604 5 5.87621 5 6.54373H7C7 6.41023 7.05268 6.28219 7.14645 6.18779C7.24021 6.09339 7.36739 6.04036 7.5 6.04036H8.146C8.2321 6.0404 8.31566 6.06972 8.38313 6.12357C8.45061 6.17742 8.49803 6.25264 8.51771 6.33702C8.53739 6.42141 8.52818 6.51002 8.49156 6.58847C8.45495 6.66693 8.39309 6.73063 8.316 6.76924L7 7.43169V9.06061H9V8.67603L9.211 8.56931C9.69063 8.32758 10.0752 7.92995 10.3024 7.44079C10.5296 6.95164 10.5862 6.3996 10.463 5.87404C10.3398 5.34848 10.044 4.88017 9.62346 4.54493C9.20296 4.2097 8.68238 4.02715 8.146 4.02686H7.5Z" fill="#136AF3"/>
<path d="M0 8.05401C0 5.91795 0.842855 3.86938 2.34315 2.35896C3.84344 0.848545 5.87827 0 8 0C10.1217 0 12.1566 0.848545 13.6569 2.35896C15.1571 3.86938 16 5.91795 16 8.05401C16 10.1901 15.1571 12.2386 13.6569 13.749C12.1566 15.2595 10.1217 16.108 8 16.108C5.87827 16.108 3.84344 15.2595 2.34315 13.749C0.842855 12.2386 0 10.1901 0 8.05401ZM8 2.0135C7.21207 2.0135 6.43185 2.16974 5.7039 2.47331C4.97595 2.77687 4.31451 3.22181 3.75736 3.78272C3.20021 4.34364 2.75825 5.00954 2.45672 5.7424C2.15519 6.47527 2 7.26076 2 8.05401C2 8.84726 2.15519 9.63274 2.45672 10.3656C2.75825 11.0985 3.20021 11.7644 3.75736 12.3253C4.31451 12.8862 4.97595 13.3311 5.7039 13.6347C6.43185 13.9383 7.21207 14.0945 8 14.0945C9.5913 14.0945 11.1174 13.4581 12.2426 12.3253C13.3679 11.1925 14 9.65605 14 8.05401C14 6.45196 13.3679 4.91554 12.2426 3.78272C11.1174 2.64991 9.5913 2.0135 8 2.0135Z" fill="#136AF3"/>
</svg>
