<svg width="46" height="32" viewBox="0 0 46 32" fill="none" xmlns="http://www.w3.org/2000/svg">
<rect x="0.5" y="0.5" width="45" height="30.5429" rx="3.5" fill="white" stroke="#D9D9D9"/>
<path d="M32.2 14.1668C32.1052 13.5977 31.5835 13.2183 30.8721 13.2183C30.635 13.2183 30.4453 13.2183 30.2081 13.2183C29.7813 13.1708 29.6865 13.3131 29.6865 13.6451C29.6865 15.305 29.6865 16.9175 29.6865 18.5774C29.6865 19.431 28.8328 20.3321 27.8369 20.5218C24.7068 21.2332 21.5767 21.8972 18.4466 22.6085C18.1146 22.7034 17.7352 22.7034 17.3558 22.7034C17.2135 22.7034 16.9764 22.6085 16.929 22.4663C16.8815 22.3714 17.0238 22.1817 17.1187 22.0869C17.2609 21.992 17.4507 21.8972 17.6404 21.8023C18.2095 21.6126 18.826 21.4229 19.3951 21.2332C21.719 20.4744 24.0428 19.7156 26.3667 18.9093C27.41 18.5774 27.9791 17.866 27.9791 16.9649C28.0266 14.1194 27.9791 11.2264 27.9791 8.38085C27.9791 7.90659 27.742 7.52719 27.2203 7.33749C26.6038 7.10036 26.0347 7.29006 25.513 7.52719C22.1932 9.09223 18.9208 10.6573 15.601 12.2223C14.6525 12.6966 14.0834 13.3605 14.0834 14.3091C14.0834 17.0123 14.0834 19.7156 14.0834 22.4188C14.0834 22.5611 14.0834 22.7034 14.1308 22.7982C14.4628 23.6993 15.3165 24.2684 16.4547 24.2684C18.7786 24.2684 21.1024 24.2684 23.4263 24.2684C25.7501 24.2684 28.0266 24.2684 30.3504 24.2684C30.8721 24.2684 31.2989 24.1736 31.6783 23.8416C32.1526 23.4622 32.1526 22.9405 32.1526 22.4663C32.1526 20.133 32.2 14.1668 32.2 14.1668ZM22.5252 13.3131C22.7623 12.6966 23.284 12.3172 24.0428 12.2223C24.5645 12.1749 24.9913 12.4595 25.0862 12.9337C25.181 13.6451 24.3274 14.4988 23.4263 14.4988C22.7149 14.4988 22.2881 13.9771 22.5252 13.3131Z" fill="#FD6727"/>
</svg>
